<svg width="51" height="61" viewBox="0 0 51 61" fill="none" xmlns="http://www.w3.org/2000/svg">
<path d="M34.0484 25.3458L27.8126 35.0095L23.3373 28.5796L17.1014 38.2296L42.1014 38.1932L34.0484 25.3458ZM4.56144 10.9752L0.0159864 10.9818L0.0799319 54.6181C0.0843481 57.6318 2.12201 60.0697 4.63337 60.0661L40.997 60.013L40.989 54.5584L4.62538 54.6115L4.56144 10.9752ZM45.4545 0.00640396L13.6363 0.0528489C11.125 0.0565148 9.09448 2.50039 9.09889 5.51402L9.15484 43.6958C9.15926 46.7094 11.1969 49.1474 13.7083 49.1437L45.5264 49.0973C48.0378 49.0936 50.0683 46.6497 50.0639 43.6361L50.0079 5.45431C50.0035 2.44068 47.9659 0.00273813 45.4545 0.00640396ZM45.5184 43.6427L13.7003 43.6892L13.6443 5.50739L45.4625 5.46094L45.5184 43.6427Z" fill="#4E51FE"/>
</svg>
